<svg class="icon icon-planet icon-md" viewBox="0 0 20 20" stroke-width="1.5px" stroke="currentColor" fill="none" xmlns="http://www.w3.org/2000/svg">
      <path d="M2.98337 14.6L4.00004 13.9833C4.10004 13.925 4.18337 13.8333 4.24171 13.7333C4.30004 13.6333 4.33337 13.5167 4.33337 13.3917L4.35004 10.2583C4.35004 10.125 4.39171 9.99999 4.46671 9.89166L6.18337 7.19166C6.23337 7.10833 6.30004 7.04166 6.38337 6.99166C6.45837 6.94166 6.55004 6.89999 6.64171 6.88333C6.73337 6.86666 6.83337 6.86666 6.92504 6.88333C7.01671 6.89999 7.10837 6.94166 7.18337 6.99999L8.88337 8.23333C9.03337 8.33333 9.20837 8.38333 9.38337 8.36666L12.1167 7.99166C12.2834 7.96666 12.4334 7.88333 12.5417 7.75833L14.4667 5.53333C14.5834 5.39999 14.6417 5.22499 14.6334 5.04999L14.5417 2.94166M14.925 16.3583L13.9834 15.425C13.9 15.3417 13.7917 15.275 13.675 15.2417L11.8084 14.7583C11.6417 14.7167 11.5 14.6083 11.4084 14.4667C11.3167 14.325 11.275 14.15 11.3 13.9833L11.5 12.575C11.5167 12.4583 11.5667 12.3417 11.6417 12.25C11.7167 12.1583 11.8167 12.0833 11.925 12.0333L14.5667 10.9333C14.6917 10.8833 14.825 10.8667 14.9584 10.8917C15.0917 10.9167 15.2084 10.975 15.3084 11.0667L17.4667 13.0417M9.79171 18.125C14.3917 18.125 18.125 14.3917 18.125 9.79166C18.125 5.19166 14.3917 1.45833 9.79171 1.45833C5.19171 1.45833 1.45837 5.19166 1.45837 9.79166C1.45837 14.3917 5.19171 18.125 9.79171 18.125Z" stroke-linecap="round" stroke-linejoin="round"></path>
    </svg>