<svg class="icon icon-lightning icon-md" viewBox="0 0 20 20" stroke-width="1.5px" stroke="currentColor" fill="none" xmlns="http://www.w3.org/2000/svg">
      <path d="M3.74636 9.06716L8.81736 2.72841C9.69125 1.63604 10.1282 1.08986 10.5114 1.0296C10.8431 0.977431 11.1788 1.09519 11.4052 1.34312C11.6667 1.62956 11.6667 2.32901 11.6667 3.72792V6.73334C11.6667 7.29339 11.6667 7.57342 11.7757 7.78733C11.8716 7.97549 12.0246 8.12847 12.2128 8.22435C12.4267 8.33334 12.7067 8.33334 13.2667 8.33334H15.0044C16.0701 8.33334 16.603 8.33334 16.8766 8.5518C17.1147 8.74178 17.2531 9.02988 17.2528 9.33442C17.2524 9.68459 16.9195 10.1007 16.2538 10.9329L11.1828 17.2716C10.3089 18.364 9.87197 18.9101 9.48878 18.9704C9.15711 19.0226 8.82139 18.9048 8.59498 18.6569C8.33342 18.3705 8.33342 17.671 8.33342 16.2721V13.2667C8.33342 12.7066 8.33342 12.4266 8.22442 12.2127C8.12855 12.0245 7.97557 11.8715 7.78741 11.7757C7.57349 11.6667 7.29347 11.6667 6.73342 11.6667H4.99575C3.93005 11.6667 3.3972 11.6667 3.12352 11.4482C2.88551 11.2582 2.74704 10.9701 2.74737 10.6656C2.74775 10.3154 3.08062 9.89933 3.74636 9.06716Z" stroke-linecap="round" stroke-linejoin="round"></path>
    </svg>