<svg class="icon icon-shirt icon-md" viewBox="0 0 20 20" stroke-width="1.5px" stroke="currentColor" fill="none" xmlns="http://www.w3.org/2000/svg">
      <path d="M12.8249 2.29167C12.8249 3.95834 11.4583 5.32501 9.79159 5.32501C8.12492 5.32501 6.75825 3.95834 6.75825 2.29167H5.42985C4.80738 2.29167 4.1935 2.43695 3.63706 2.71594L2.56186 3.25502C1.88537 3.59419 1.45825 4.28613 1.45825 5.04288V7.35001C1.45825 7.90229 1.90597 8.35001 2.45825 8.35001H3.49159C4.04387 8.35001 4.49159 8.79772 4.49159 9.35001V15.4417C4.49159 16.5462 5.38702 17.4417 6.49159 17.4417H13.0999C14.2045 17.4417 15.0999 16.5462 15.0999 15.4417V9.35001C15.0999 8.79772 15.5476 8.35001 16.0999 8.35001H17.1333C17.6855 8.35001 18.1333 7.90229 18.1333 7.35001V5.04441C18.1333 4.28686 17.7052 3.59434 17.0277 3.25555L15.9445 2.71396C15.3891 2.43625 14.7766 2.29167 14.1556 2.29167H12.8249Z" stroke-linecap="round" stroke-linejoin="round"></path>
    </svg>