<svg class="icon icon-alert icon-md" viewBox="0 0 20 20" stroke-width="1.5px" stroke="currentColor" fill="none" xmlns="http://www.w3.org/2000/svg">
      <path d="M10 10.8333V7.5M10.4167 13.75C10.4167 13.9801 10.2302 14.1667 10 14.1667C9.76992 14.1667 9.58337 13.9801 9.58337 13.75M10.4167 13.75C10.4167 13.5199 10.2302 13.3333 10 13.3333C9.76992 13.3333 9.58337 13.5199 9.58337 13.75M10.4167 13.75H9.58337M15.9663 8.1541V8.1541C14.5757 5.67074 13.8803 4.42906 13.107 3.81574C11.2871 2.37242 8.71296 2.37242 6.89309 3.81574C6.11977 4.42906 5.42443 5.67074 4.03375 8.1541V8.1541C2.69683 10.5414 2.02837 11.7351 1.90485 12.6955C1.61444 14.9532 2.8857 17.1221 4.9975 17.9719C5.89575 18.3333 7.26384 18.3333 10 18.3333V18.3333C12.7362 18.3333 14.1043 18.3333 15.0026 17.9719C17.1144 17.1221 18.3856 14.9532 18.0952 12.6955C17.9717 11.7351 17.3032 10.5414 15.9663 8.1541Z" stroke-linecap="round" stroke-linejoin="round"></path>
    </svg>