<svg class="icon icon-truck icon-md" viewBox="0 0 20 20" stroke-width="1.5px" stroke="currentColor" fill="none" xmlns="http://www.w3.org/2000/svg">
      <path d="M8.33325 15.8333H11.6666M8.33325 15.8333C8.33325 17.2141 7.21396 18.3333 5.83325 18.3333C4.45254 18.3333 3.33325 17.2141 3.33325 15.8333M8.33325 15.8333C8.33325 14.4526 7.21396 13.3333 5.83325 13.3333C4.45254 13.3333 3.33325 14.4526 3.33325 15.8333M11.6666 15.8333C11.6666 17.2141 12.7859 18.3333 14.1666 18.3333C15.5473 18.3333 16.6666 17.2141 16.6666 15.8333M11.6666 15.8333C11.6666 14.4526 12.7859 13.3333 14.1666 13.3333C15.5473 13.3333 16.6666 14.4526 16.6666 15.8333M16.6666 15.8333V15.8333C18.0473 15.8333 19.1666 14.714 19.1666 13.3333V6.46667C19.1666 4.78651 19.1666 3.94644 18.8396 3.3047C18.552 2.74021 18.093 2.28127 17.5286 1.99365C16.8868 1.66667 16.0467 1.66667 14.3666 1.66667H13.6666C12.2688 1.66667 11.5698 1.66667 11.0185 1.89503C10.2834 2.19952 9.69943 2.78354 9.39495 3.51862C9.16658 4.06993 9.16658 4.76885 9.16658 6.16667V6.16667C9.16658 7.09856 9.16658 7.5645 9.01434 7.93204C8.81136 8.4221 8.42201 8.81144 7.93195 9.01443C7.56441 9.16667 7.09847 9.16667 6.16659 9.16667H1.24992M3.33325 15.8333V15.8333C2.8686 15.8333 2.63627 15.8333 2.44307 15.7949C1.64969 15.6371 1.02949 15.0169 0.871681 14.2235C0.833252 14.0303 0.833252 13.798 0.833252 13.3333V10.7629C0.833252 10.2784 0.833252 10.0362 0.861582 9.79938C0.909552 9.39848 1.01794 9.00715 1.18307 8.6387C1.28059 8.4211 1.40523 8.21337 1.65451 7.79792V7.79792C2.15329 6.9666 2.40269 6.55094 2.71935 6.22272C3.25656 5.66591 3.94372 5.27684 4.69757 5.10267C5.14194 5.00001 5.62668 5.00001 6.59615 5.00001H9.16658" stroke-linecap="round" stroke-linejoin="round"></path>
    </svg>